<svg xmlns="http://www.w3.org/2000/svg" viewBox="0 0 48 48"><title>12-code</title><g id="_12-code" data-name="12-code"><path d="M30.945,41.891a10.946,10.946,0,1,1,7.741-18.685h0a10.946,10.946,0,0,1-7.741,18.685Zm0-19.891a8.946,8.946,0,1,0,6.326,2.62A8.89,8.89,0,0,0,30.945,22Z"/><path d="M45.011,48a2.972,2.972,0,0,1-2.114-.875l-4.219-4.22a1,1,0,0,1,0-1.414l2.813-2.813a1,1,0,0,1,.707-.293h0a1,1,0,0,1,.707.293L47.124,42.9A2.989,2.989,0,0,1,45.011,48ZM40.8,42.2l3.513,3.512a1.011,1.011,0,0,0,1.4,0,.987.987,0,0,0,0-1.4h0L42.2,40.8Z"/><rect x="38.385" y="37.396" width="2" height="3.978" transform="translate(-16.314 39.375) rotate(-44.99)"/><path d="M8,11H5V9H8A1,1,0,0,0,9,8V3.414L1.707,10.707.293,9.293l9-9A1,1,0,0,1,11,1V8A3,3,0,0,1,8,11Z"/><path d="M33,48H3a3,3,0,0,1-3-3V10a1,1,0,0,1,.293-.707l9-9A1,1,0,0,1,10,0H33a3,3,0,0,1,3,3V22H34V3a1,1,0,0,0-1-1H10.414L2,10.414V45a1,1,0,0,0,1,1H33a1,1,0,0,0,1-1V40h2v5A3,3,0,0,1,33,48Z"/><path d="M26.293,34.707l-3-3a1,1,0,0,1,0-1.414l3-3,1.414,1.414L25.414,31l2.293,2.293Z"/><path d="M35.707,34.707l-1.414-1.414L36.586,31l-2.293-2.293,1.414-1.414,3,3a1,1,0,0,1,0,1.414Z"/><rect x="27.394" y="30" width="7.211" height="2" transform="translate(-11.989 39.598) rotate(-56.31)"/><rect x="6" y="14" width="2" height="2"/><rect x="10" y="14" width="20" height="2"/><rect x="10" y="19" width="12" height="2"/><rect x="6" y="19" width="2" height="2"/><rect x="6" y="24" width="2" height="2"/><rect x="10" y="24" width="9" height="2"/><rect x="10" y="29" width="8" height="2"/><rect x="6" y="29" width="2" height="2"/><rect x="6" y="34" width="2" height="2"/><rect x="10" y="34" width="9" height="2"/><rect x="10" y="39" width="11" height="2"/><rect x="6" y="39" width="2" height="2"/><path d="M32,9H30V6H27V4h4a1,1,0,0,1,1,1Z"/><rect x="23" y="4" width="2" height="2"/></g></svg>