<svg xmlns="http://www.w3.org/2000/svg" viewBox="0 0 48 48"><defs><style>.cls-1{fill:#201602;}</style></defs><title>Asset 29ldpi</title><g id="Layer_2" data-name="Layer 2"><g id="layer_1-2" data-name="layer 1"><path class="cls-1" d="M35,48H13A13,13,0,0,1,0,35V13A13,13,0,0,1,13,0H35A13,13,0,0,1,48,13V35A13,13,0,0,1,35,48ZM13,2A11,11,0,0,0,2,13V35A11,11,0,0,0,13,46H35A11,11,0,0,0,46,35V13A11,11,0,0,0,35,2Z"/><path class="cls-1" d="M39,36H9a1,1,0,0,1-1-1V13a1,1,0,0,1,1-1H39a1,1,0,0,1,1,1V35A1,1,0,0,1,39,36ZM10,34H38V14H10Z"/><path class="cls-1" d="M24,28a1,1,0,0,1-.68-.27l-15-14A1,1,0,0,1,9,12H39a1,1,0,0,1,.68,1.73l-15,14A1,1,0,0,1,24,28ZM11.54,14,24,25.63,36.46,14Z"/><path class="cls-1" d="M39,36H9a1,1,0,0,1-.68-1.73l11.78-11,1.37,1.46L11.54,34H36.46l-9.93-9.27,1.37-1.46,11.78,11A1,1,0,0,1,39,36Z"/></g></g></svg>